HIERARCHY
ROOT Hips
{
	OFFSET 0.000000 0.000000 0.000000 
	CHANNELS 6 Xposition Yposition Zposition Yrotation Zrotation Xrotation 
	JOINT Lumbar
	{
		OFFSET 0.000000 0.000000 0.000000 
		CHANNELS 3 Zrotation Xrotation Yrotation
		JOINT Neck
		{
			OFFSET 0.000000 0.445665 0.000000 
			CHANNELS 3 Zrotation Xrotation Yrotation
			End Site
			{
				OFFSET 0.000000 0.227535 0.000000 
			}
		}
		JOINT RightShoulder
		{
			OFFSET 0.019635 0.377685 0.194865 
			CHANNELS 3 Zrotation Xrotation Yrotation
			JOINT RightElbow
			{
				OFFSET 0.000000 -0.243375 0.000000 
				CHANNELS 2 Zrotation Yrotation
				JOINT RightWrist
				{
					OFFSET 0.000000 -0.264825 0.000000 
					CHANNELS 2 Zrotation Xrotation
					End Site
					{
						OFFSET 0.006600 -0.176220 0.000990 
					}
				}
			}
		}
		JOINT LeftShoulder
		{
			OFFSET 0.019635 0.377685 -0.194865 
			CHANNELS 3 Zrotation Xrotation Yrotation
			JOINT LeftElbow
			{
				OFFSET 0.000000 -0.243375 0.000000 
				CHANNELS 2 Zrotation Yrotation
				JOINT LeftWrist
				{
					OFFSET 0.000000 -0.264825 0.000000 
					CHANNELS 2 Zrotation Xrotation
					End Site
					{
						OFFSET 0.006600 -0.176220 -0.000990 
					}
				}
			}
		}
	}
	JOINT RightHip
	{
		OFFSET 0.052140 -0.069960 0.075570 
		CHANNELS 3 Zrotation Xrotation Yrotation
		JOINT RightKnee
		{
			OFFSET 0.000000 -0.402270 0.000000 
			CHANNELS 1 Zrotation
			JOINT RightAnkle
			{
				OFFSET 0.000000 -0.404085 0.000000 
				CHANNELS 3 Zrotation Xrotation Yrotation
				End Site
				{
					OFFSET 0.204105 -0.089430 0.008415 
				}
			}
		}
	}
	JOINT LeftHip
	{
		OFFSET 0.052140 -0.069960 -0.075570 
		CHANNELS 3 Zrotation Xrotation Yrotation
		JOINT LeftKnee
		{
			OFFSET 0.000000 -0.402270 0.000000 
			CHANNELS 1 Zrotation
			JOINT LeftAnkle
			{
				OFFSET 0.000000 -0.404085 0.000000 
				CHANNELS 3 Zrotation Xrotation Yrotation
				End Site
				{
					OFFSET 0.204105 -0.089430 -0.008415 
				}
			}
		}
	}
}
MOTION
Frames: 13
Frame Time: 0.02
-0.07462 -0.02445 -0.21918 -161.84774 -30.39426 -6.36077 41.05954 7.16907 0.19954 -10.07606 -7.40105 -2.11994 -62.02444 -58.91479 45.11681 114.47775 119.25239 -51.34695 -7.15491 -25.90652 71.26431 84.36402 105.70959 -46.97753 -42.87055 -1.22765 33.83528 7.64733 -21.75636 -20.53592 -6.47077 -0.42467 -2.45963 47.16079 14.22684 4.28605 -42.83886 -6.51467 2.13141 3.2703
-0.0741 -0.02484 -0.21917 -161.90027 -30.39618 -6.45603 40.97324 7.31197 0.35543 -10.72967 -7.31185 -2.11994 -62.04435 -58.3927 45.50093 114.28841 118.9411 -52.47521 -7.06484 -24.15501 68.96343 85.11763 106.62189 -49.06787 -40.01833 -1.15795 33.89278 7.69202 -21.88472 -20.62745 -4.31302 0.61421 -1.9387 47.26764 14.37447 4.41435 -42.99446 -6.504 2.12912 3.2665
-0.07355 -0.02522 -0.21905 -161.867 -30.34141 -6.54288 40.87339 7.48244 0.45612 -11.42403 -7.34384 -2.11994 -62.04067 -58.1969 45.77929 114.272 118.61872 -53.33785 -7.00317 -17.66918 66.51664 81.48267 107.32701 -52.35124 -35.98187 -1.00147 33.8901 7.73013 -22.01662 -20.7173 -1.57425 1.92245 -1.28291 47.32743 14.53363 4.58839 -43.1486 -6.49519 2.11787 3.25804
-0.07301 -0.02559 -0.21898 -161.8612 -30.31318 -6.62954 40.77725 7.63328 0.57969 -12.07562 -7.32976 -2.11994 -62.03836 -57.86813 46.10484 114.17731 118.28738 -54.2593 -6.92816 -13.63712 64.22026 79.97939 108.11534 -54.98294 -32.62876 -0.88859 33.91589 7.77063 -22.13925 -20.80514 0.82021 3.06161 -0.7118 47.40842 14.6828 4.73809 -43.29687 -6.48606 2.10933 3.25122
-0.07249 -0.02603 -0.21887 -161.90405 -30.28116 -6.73405 40.69059 7.81392 0.7118 -12.83061 -7.27592 -2.11994 -62.06623 -57.46425 46.44934 114.07376 117.98521 -55.43758 -6.85062 -8.41286 61.53433 77.99004 108.94969 -58.05867 -28.68162 -0.75968 33.93657 7.81402 -22.29765 -20.90552 3.56225 4.40023 -0.0407 47.49018 14.85419 4.90511 -43.47375 -6.47456 2.10616 3.24625
-0.07193 -0.02632 -0.21884 -161.82485 -30.24411 -6.79918 40.58194 7.93948 0.81295 -13.37944 -7.3343 -2.11994 -62.02981 -57.29743 46.7221 114.03295 117.62997 -56.01817 -6.78683 -4.49964 59.63587 75.91976 109.64343 -60.5033 -25.6763 -0.64311 33.95421 7.84941 -22.38223 -20.97933 5.70861 5.38503 0.45299 47.55983 14.98037 5.04394 -43.59058 -6.46848 2.09005 3.2365
-0.07128 -0.02616 -0.21905 -161.43409 -30.20256 -6.75561 40.40766 7.90162 0.84669 -13.35014 -7.67308 -2.11994 -61.81358 -57.71662 46.8394 114.11896 117.14344 -55.03014 -6.75309 -5.55964 59.97718 74.89062 109.94661 -60.86616 -25.65232 -0.58046 33.97227 7.86781 -22.24706 -20.97684 6.1494 5.34516 0.43286 47.59891 14.98971 5.12077 -43.53835 -6.47708 2.0373 3.21334
-0.0706 -0.02584 -0.21933 -160.92307 -30.15867 -6.6729 40.21308 7.80819 0.85053 -13.11194 -8.12057 -2.11994 -61.53575 -58.3626 46.88384 114.26364 116.60468 -53.44766 -6.73281 -8.05796 61.11424 73.8882 110.12534 -60.56032 -26.6014 -0.5335 33.99028 7.87772 -22.03928 -20.94808 5.9578 4.93734 0.22824 47.6287 14.95129 5.16358 -43.42618 -6.49106 1.97236 3.18576
-0.06992 -0.0256 -0.21956 -160.46372 -30.11893 -6.60931 40.03344 7.74317 0.86516 -12.96806 -8.51875 -2.11994 -61.2932 -58.89905 46.94763 114.38555 116.08771 -52.12705 -6.70783 -9.75916 61.87493 72.73354 110.39425 -60.59779 -27.04019 -0.47968 34.01232 7.88923 -21.8743 -20.93344 5.99886 4.68466 0.10147 47.6686 14.92709 5.20305 -43.34369 -6.50247 1.91511 3.16115
-0.06927 -0.02534 -0.21986 -160.01236 -30.06454 -6.53993 39.83 7.66582 0.88947 -12.82684 -8.92179 -2.11994 -61.02072 -59.47414 47.06275 114.49811 115.58335 -50.83148 -6.67852 -11.89699 62.69856 72.00565 110.51128 -60.52363 -27.7135 -0.42068 34.01593 7.91008 -21.6694 -20.90974 6.28083 4.48845 0.00274 47.683 14.93364 5.31959 -43.25106 -6.51446 1.8487 3.13247
-0.06856 -0.02509 -0.22005 -159.51896 -30.04038 -6.47325 39.6705 7.60058 0.88746 -12.6317 -9.33759 -2.11994 -60.79401 -60.01818 47.05917 114.64033 115.0339 -49.34673 -6.66014 -13.53479 63.57394 70.46837 110.92129 -60.49087 -28.15957 -0.37866 34.058 7.90948 -21.52878 -20.89846 5.91642 4.08863 -0.19749 47.74768 14.86623 5.27183 -43.1651 -6.52652 1.79828 3.11111
-0.06769 -0.02492 -0.21996 -158.92214 -30.10492 -6.42506 39.64608 7.58225 0.81942 -12.32382 -9.77295 -2.11994 -60.7305 -60.42078 46.70802 114.86262 114.43863 -47.48621 -6.67727 -13.40751 64.46932 66.57092 112.13938 -60.87829 -27.61706 -0.36827 34.21287 7.85217 -21.59646 -20.9297 3.80457 3.17265 -0.65495 47.96459 14.59247 4.73621 -43.11384 -6.53723 1.79795 3.11256
-0.06676 -0.02478 -0.21977 -158.29093 -30.19959 -6.38062 39.66524 7.57791 0.72691 -11.97188 -10.21447 -2.11994 -60.71256 -60.78198 46.24637 115.10952 113.79284 -45.46097 -6.70367 -12.75898 65.37627 61.90476 113.66189 -61.30048 -26.83983 -0.37672 34.40573 7.77344 -21.7287 -20.97394 1.08241 2.07111 -1.20487 48.23071 14.24832 4.04405 -43.07091 -6.54788 1.81369 3.12129
